<?xml version="1.0" encoding="UTF-8" standalone="no"?>
<!-- Created with Inkscape (http://www.inkscape.org/) -->

<svg
   version="1.1"
   id="svg1"
   width="1365.3333"
   height="1365.3333"
   viewBox="0 0 1365.3333 1365.3333"
   xmlns="http://www.w3.org/2000/svg"
   xmlns:svg="http://www.w3.org/2000/svg">
  <defs
     id="defs1" />
  <g
     id="g1">
    <path
       style="fill:none;stroke:#000000;stroke-opacity:1"
       d="m 669.33329,1261.0846 c 49.3713,-9.3258 85.28282,-53.7974 100.46952,-124.418 6.10252,-28.3777 8.41069,-49.2898 12.87705,-116.6667 11.56653,-174.48554 20.6809,-237.20229 52.02666,-357.99994 25.94736,-99.99374 30.21209,-126.08563 28.93491,-177.0258 C 862.27476,430.46436 851.69327,374.84829 830.73146,311.99998 803.1523,229.31137 767.21215,156.71182 735.61417,119.8619 726.42263,109.14262 709.44973,95.464206 698.37923,89.854361 680.72967,80.91065 657.58186,78.989419 635.36769,84.624505 590.05901,96.117996 551.52196,139.47971 527.86876,205.58181 c -21.30918,59.55145 -33.24153,136.41124 -31.42506,202.41817 1.63035,59.24413 9.50841,95.70197 37.35795,172.88412 14.78057,40.96284 18.46581,52.71067 24.81826,79.11586 9.40285,39.08471 12.88961,73.5655 11.59529,114.66666 -1.09555,34.78968 -3.19911,51.90516 -18.76329,152.66666 -13.9112,90.06022 -17.09786,120.16282 -17.14932,162.00002 -0.0415,33.7573 1.98689,52.9697 8.18251,77.5016 12.46314,49.3486 35.93874,78.8372 72.52688,91.1039 17.05045,5.7165 35.15997,6.7652 54.32131,3.1458 z"
       id="path4" />
  </g>
</svg>
